<svg width="48" height="48" viewBox="0 0 48 48" fill="none" xmlns="http://www.w3.org/2000/svg">
<rect width="48" height="48" rx="13" fill="#1B75BB" fill-opacity="0.12"/>
<path d="M22.0625 27.9375V25.4375H19.5625C19.0156 25.4375 18.625 25.0469 18.625 24.5C18.625 23.9922 19.0156 23.5625 19.5625 23.5625H22.0625V21.0625C22.0625 20.5547 22.4531 20.125 23 20.125C23.5078 20.125 23.9375 20.5547 23.9375 21.0625V23.5625H26.4375C26.9453 23.5625 27.375 23.9922 27.375 24.5C27.375 25.0469 26.9453 25.4375 26.4375 25.4375H23.9375V27.9375C23.9375 28.4844 23.5078 28.875 23 28.875C22.4531 28.875 22.0625 28.4844 22.0625 27.9375ZM33 24.5C33 30.0469 28.5078 34.5 23 34.5C17.4531 34.5 13 30.0469 13 24.5C13 18.9922 17.4531 14.5 23 14.5C28.5078 14.5 33 18.9922 33 24.5ZM23 16.375C18.5078 16.375 14.875 20.0469 14.875 24.5C14.875 28.9922 18.5078 32.625 23 32.625C27.4531 32.625 31.125 28.9922 31.125 24.5C31.125 20.0469 27.4531 16.375 23 16.375Z" fill="#1B75BB"/>
</svg>
