<svg width="48" height="48" viewBox="0 0 48 48" fill="none" xmlns="http://www.w3.org/2000/svg">
<rect width="48" height="48" rx="13" fill="#1D77FD" fill-opacity="0.1"/>
<path d="M20.125 23.875C20.125 22.8594 20.9453 22 22 22C23.0156 22 23.875 22.8594 23.875 23.875C23.875 24.9297 23.0156 25.75 22 25.75C20.9453 25.75 20.125 24.9297 20.125 23.875ZM27.625 23.875C27.625 27 25.0859 29.5 22 29.5C18.875 29.5 16.375 27 16.375 23.875C16.375 20.7891 18.875 18.25 22 18.25C25.0859 18.25 27.625 20.7891 27.625 23.875ZM22 20.125C19.8906 20.125 18.25 21.8047 18.25 23.875C18.25 25.9453 19.8906 27.625 22 27.625C24.0703 27.625 25.75 25.9453 25.75 23.875C25.75 21.8047 24.0703 20.125 22 20.125ZM32.625 21.375C32.625 22.0781 32.2344 22.7031 31.6875 23.0156V27.3125C31.6875 27.8594 31.2578 28.25 30.75 28.25C30.2031 28.25 29.8125 27.8594 29.8125 27.3125V23.0156C29.2266 22.7031 28.875 22.0781 28.875 21.375C28.875 20.3594 29.6953 19.5 30.75 19.5C31.7656 19.5 32.625 20.3594 32.625 21.375ZM13.25 17C13.25 15.6328 14.3438 14.5 15.75 14.5H33.25C34.6172 14.5 35.75 15.6328 35.75 17V30.75C35.75 32.1562 34.6172 33.25 33.25 33.25V33.5625C33.25 34.1094 32.8203 34.5 32.3125 34.5C31.7656 34.5 31.375 34.1094 31.375 33.5625V33.25H17.625V33.5625C17.625 34.1094 17.1953 34.5 16.6875 34.5C16.1406 34.5 15.75 34.1094 15.75 33.5625V33.25C14.3438 33.25 13.25 32.1562 13.25 30.75V17ZM15.125 17V30.75C15.125 31.1016 15.3984 31.375 15.75 31.375H33.25C33.5625 31.375 33.875 31.1016 33.875 30.75V17C33.875 16.6875 33.5625 16.375 33.25 16.375H15.75C15.3984 16.375 15.125 16.6875 15.125 17Z" fill="#1B75BB"/>
</svg>
