<svg width="48" height="48" viewBox="0 0 48 48" fill="none" xmlns="http://www.w3.org/2000/svg">
<rect width="48" height="48" rx="13" fill="#1B75BB" fill-opacity="0.12"/>
<path d="M26.8125 32.625C27.3203 32.625 27.75 33.0547 27.75 33.5625C27.75 34.1094 27.3203 34.5 26.8125 34.5H21.1875C20.6406 34.5 20.25 34.1094 20.25 33.5625C20.25 33.0547 20.6406 32.625 21.1875 32.625H23.0625V23.25H22.4375C21.8906 23.25 21.5 22.8594 21.5 22.3125C21.5 21.8047 21.8906 21.375 22.4375 21.375H24C24.5078 21.375 24.9375 21.8047 24.9375 22.3125V32.625H26.8125ZM24 19.5C22.9453 19.5 22.125 18.6797 22.125 17.6641C22.125 16.6094 22.9453 15.7891 24 15.7891C25.0156 15.7891 25.875 16.6094 25.875 17.625C25.875 18.6797 25.0156 19.5 24 19.5Z" fill="#1B75BB"/>
</svg>
