<svg width="49" height="48" viewBox="0 0 49 48" fill="none" xmlns="http://www.w3.org/2000/svg">
<rect x="0.5" width="48" height="48" rx="13" fill="#1D77FD" fill-opacity="0.1"/>
<path d="M33.7969 19.5391C34.2266 19.7734 34.5 20.2031 34.5 20.6719C34.5 21.4141 33.875 22 33.1328 22H15.8281C15.0859 22 14.5 21.4141 14.5 20.6719C14.5 20.2031 14.7344 19.7734 15.1641 19.5391L24.0312 14.6172C24.3047 14.5 24.6562 14.5 24.9297 14.6172L33.7969 19.5391ZM23.25 19.5C23.25 18.8359 23.7969 18.25 24.5 18.25C25.1641 18.25 25.75 18.8359 25.75 19.5C25.75 19.7344 25.6719 19.9688 25.5547 20.125H31.0234L24.5 16.5312L17.9375 20.125H23.4062C23.2891 19.9688 23.25 19.7344 23.25 19.5ZM17 23.25H18.875V29.5H21.375V23.25H23.25V29.5H25.75V23.25H27.625V29.5H30.125V23.25H32V29.5H32.3125C32.8203 29.5 33.25 29.9297 33.25 30.4375C33.25 30.9844 32.8203 31.375 32.3125 31.375H17C16.4531 31.375 16.0625 30.9844 16.0625 30.4375C16.0625 29.9297 16.4531 29.5 17 29.5V23.25ZM33.5625 32.625C34.0703 32.625 34.5 33.0547 34.5 33.5625C34.5 34.1094 34.0703 34.5 33.5625 34.5H15.75C15.2031 34.5 14.8125 34.1094 14.8125 33.5625C14.8125 33.0547 15.2031 32.625 15.75 32.625H33.5625Z" fill="#1B75BB"/>
</svg>
