<svg width="48" height="48" viewBox="0 0 48 48" fill="none" xmlns="http://www.w3.org/2000/svg">
<rect width="48" height="48" rx="13" fill="#1B75BB" fill-opacity="0.12"/>
<path d="M31.2578 18.1719C31.7266 18.6406 32 19.2656 32 19.9297V32C32 33.4062 30.8672 34.5 29.5 34.5H19.5C18.0938 34.5 17 33.4062 17 32V17C17 15.6328 18.0938 14.5 19.5 14.5H26.5703C27.2344 14.5 27.8594 14.7734 28.3281 15.2422L31.2578 18.1719ZM29.5 32.625C29.8125 32.625 30.125 32.3516 30.0859 32V20.75H27C26.2969 20.75 25.75 20.2031 25.75 19.5V16.4141H19.5C19.1484 16.4141 18.875 16.6875 18.875 17.0391V32.0391C18.875 32.3516 19.1484 32.625 19.5 32.625H29.5Z" fill="#1B75BB"/>
</svg>
