<svg width="49" height="32" viewBox="0 0 49 32" fill="none" xmlns="http://www.w3.org/2000/svg">
<path d="M33.6973 15.5625C34.2051 15.5625 34.6348 15.9922 34.6348 16.5C34.6348 19.7812 31.9395 22.4375 28.6973 22.4375H20.2989L22.7598 24.9375C23.1504 25.2891 23.1504 25.875 22.7598 26.2266C22.6035 26.4219 22.3692 26.5 22.1348 26.5C21.8614 26.5 21.627 26.4219 21.4317 26.2266L17.3692 22.1641C17.0176 21.8125 17.0176 21.2266 17.3692 20.875L21.4317 16.8125C21.8223 16.4219 22.4082 16.4219 22.7598 16.8125C23.1504 17.1641 23.1504 17.75 22.7598 18.1016L20.2989 20.5625H28.6973C30.9239 20.5625 32.7598 18.7656 32.7598 16.5C32.7598 15.9922 33.1504 15.5625 33.6973 15.5625ZM20.5723 12.4375C18.3067 12.4375 16.5098 14.2734 16.5098 16.5C16.5098 17.0469 16.0801 17.4375 15.5723 17.4375C15.0254 17.4375 14.6348 17.0469 14.6348 16.5C14.6348 13.2578 17.291 10.5625 20.5723 10.5625H28.9317L26.4707 8.10156C26.0801 7.75 26.0801 7.16406 26.4707 6.8125C26.8223 6.42188 27.4082 6.42188 27.7598 6.8125L31.8223 10.875C32.2129 11.2266 32.2129 11.8125 31.8223 12.1641L27.7598 16.2266C27.6035 16.4219 27.3692 16.5 27.1348 16.5C26.8614 16.5 26.627 16.4219 26.4707 16.2266C26.0801 15.875 26.0801 15.2891 26.4707 14.9375L28.9317 12.4375H20.5723Z" fill="#276EF1"/>
</svg>
