<svg width="48" height="48" viewBox="0 0 48 48" fill="none" xmlns="http://www.w3.org/2000/svg">
<rect width="48" height="48" rx="13" fill="#1D77FD" fill-opacity="0.1"/>
<path d="M24.4375 17.3906C25.4922 17.5078 26.4688 17.7031 27.2109 17.8594C27.7188 18.0156 28.0312 18.4844 27.9141 18.9922C27.7969 19.5 27.2891 19.8125 26.7812 19.6953C25.5703 19.4219 23.8125 19.0703 22.3281 19.2266C21.5859 19.2656 21 19.4219 20.5703 19.6953C20.1797 19.9688 19.8672 20.3203 19.7891 20.9062C19.6719 21.3359 19.75 21.6484 19.8672 21.8438C19.9453 22.0781 20.1797 22.3125 20.5312 22.5078C21.2734 22.9766 22.3672 23.2891 23.6953 23.6016L23.8125 23.6406C25.0234 23.9531 26.3906 24.3047 27.4453 24.9297C27.9922 25.2812 28.4609 25.7109 28.7734 26.3359C29.125 26.9609 29.1641 27.7031 29.0469 28.4844C28.7734 29.8906 27.7578 30.7891 26.5078 31.2578C25.8828 31.4922 25.1797 31.6484 24.4375 31.6875V33.5625C24.4375 34.1094 24.0078 34.5 23.5 34.5C22.9531 34.5 22.5625 34.1094 22.5625 33.5625V31.6484C22.4062 31.6094 22.2891 31.6094 22.1719 31.6094L22.1328 31.5703C21.1953 31.4531 19.4766 31.0625 18.4219 30.5938C17.9531 30.3594 17.7188 29.8125 17.9531 29.3438C18.1484 28.875 18.6953 28.6406 19.1641 28.875C19.9844 29.2266 21.5469 29.6172 22.4062 29.7344C23.8125 29.9297 24.9844 29.8125 25.8438 29.5C26.6641 29.1875 27.0938 28.7188 27.1719 28.1328C27.2891 27.6641 27.2109 27.3906 27.0938 27.1953C27.0156 26.9609 26.7812 26.7266 26.4297 26.5312C25.6875 26.0625 24.5938 25.75 23.2656 25.4375L23.1484 25.3984C21.9375 25.0859 20.5703 24.7344 19.5156 24.1094C18.9688 23.7578 18.5 23.3281 18.1875 22.7031C17.8359 22.0391 17.7969 21.3359 17.9141 20.5547C18.1484 19.4219 18.7344 18.6406 19.5547 18.1328C20.3359 17.625 21.2734 17.4297 22.1719 17.3516C22.2891 17.3516 22.4062 17.3125 22.5625 17.3125V15.4375C22.5625 14.9297 22.9531 14.5 23.5 14.5C24.0078 14.5 24.4375 14.9297 24.4375 15.4375V17.3906Z" fill="#1B75BB"/>
</svg>
