<svg width="48" height="48" viewBox="0 0 48 48" fill="none" xmlns="http://www.w3.org/2000/svg">
<rect width="48" height="48" rx="13" fill="#1B75BB" fill-opacity="0.12"/>
<path d="M15.7656 27.1562L27.6406 15.2812C28.6172 14.3047 30.2188 14.3047 31.1953 15.2812L32.7188 16.8047C32.8359 16.9219 32.9531 17.0781 33.0312 17.1953C33.6953 18.1719 33.5781 19.5 32.7188 20.3594L20.8438 32.2344C20.8047 32.2734 20.7266 32.3125 20.6875 32.3906C20.2969 32.7031 19.8672 32.9375 19.3984 33.0938L14.6719 34.4609C14.3594 34.5781 14.0078 34.5 13.7734 34.2266C13.5 33.9922 13.4219 33.6406 13.5 33.3281L14.9062 28.6016C15.0625 28.0547 15.375 27.5469 15.7656 27.1562ZM16.7031 29.1484L15.8047 32.1953L18.8516 31.2969C19.0859 31.2188 19.3203 31.1016 19.5156 30.9062L28.4609 21.9609L26 19.5391L17.0938 28.4844C17.0547 28.4844 17.0547 28.5234 17.0156 28.5625C16.8594 28.7188 16.7812 28.9141 16.7031 29.1484Z" fill="#1B75BB"/>
</svg>
