<svg width="48" height="32" viewBox="0 0 48 32" fill="none" xmlns="http://www.w3.org/2000/svg">
<path d="M24.1348 6.5C29.6426 6.5 34.1348 10.9922 34.1348 16.5C34.1348 22.0469 29.6426 26.5 24.1348 26.5C22.0645 26.5 20.1895 25.9141 18.5879 24.8594C18.1582 24.5859 18.041 24 18.3145 23.5703C18.627 23.1406 19.2129 23.0234 19.6426 23.2969C20.9317 24.1562 22.4551 24.625 24.1348 24.625C28.5879 24.625 32.2598 20.9922 32.2598 16.5C32.2598 12.0469 28.5879 8.375 24.1348 8.375C21.2442 8.375 18.7051 9.89844 17.2598 12.125H19.4473C19.9551 12.125 20.3848 12.5547 20.3848 13.0625C20.3848 13.6094 19.9551 14 19.4473 14H15.0723C14.5254 14 14.1348 13.6094 14.1348 13.0625V8.6875C14.1348 8.17969 14.5254 7.75 15.0723 7.75C15.5801 7.75 16.0098 8.17969 16.0098 8.6875V10.6797C17.8067 8.17969 20.7754 6.5 24.1348 6.5ZM24.1348 11.5C24.6426 11.5 25.0723 11.9297 25.0723 12.4375V16.1484L27.5723 18.6484C27.9629 19.0391 27.9629 19.625 27.5723 19.9766C27.2207 20.3672 26.6348 20.3672 26.2832 19.9766L23.4707 17.1641C23.2754 17.0078 23.1973 16.7734 23.1973 16.5V12.4375C23.1973 11.9297 23.5879 11.5 24.1348 11.5Z" fill="#276EF1"/>
</svg>
