<svg width="48" height="48" viewBox="0 0 48 48" fill="none" xmlns="http://www.w3.org/2000/svg">
<rect width="48" height="48" rx="13" fill="#1B75BB" fill-opacity="0.12"/>
<path d="M20.25 22C20.25 21.3359 20.7969 20.75 21.5 20.75C22.1641 20.75 22.75 21.3359 22.75 22C22.75 22.7031 22.1641 23.25 21.5 23.25C20.7969 23.25 20.25 22.7031 20.25 22ZM27.75 27C27.75 27.7031 27.1641 28.25 26.5 28.25C25.7969 28.25 25.25 27.7031 25.25 27C25.25 26.3359 25.7969 25.75 26.5 25.75C27.1641 25.75 27.75 26.3359 27.75 27ZM22.125 27.6641C21.7734 28.0547 21.1875 28.0547 20.8359 27.6641C20.4453 27.3125 20.4453 26.7266 20.8359 26.3359L25.8359 21.3359C26.1875 20.9844 26.7734 20.9844 27.125 21.3359C27.5156 21.7266 27.5156 22.3125 27.125 22.6641L22.125 27.6641ZM27.4375 16.2188C28.7266 16.0625 30.0547 16.4531 31.0703 17.4297C32.0469 18.4453 32.4375 19.7734 32.2812 21.0625C33.2969 21.8828 34 23.1328 34 24.5C34 25.9062 33.2969 27.1562 32.2812 27.9766C32.4375 29.2266 32.0469 30.5938 31.0703 31.5703C30.0547 32.5859 28.7266 32.9766 27.4375 32.8203C26.6172 33.8359 25.3672 34.5 24 34.5C22.5938 34.5 21.3438 33.8359 20.5234 32.8203C19.2344 32.9766 17.9062 32.5859 16.8906 31.5703C15.9141 30.5938 15.5234 29.2266 15.6797 27.9766C14.6641 27.1562 14 25.9062 14 24.5C14 23.1328 14.6641 21.8828 15.6797 21.0625C15.5234 19.7734 15.9141 18.4453 16.8906 17.4297C17.9062 16.4531 19.2344 16.0625 20.5234 16.2188C21.3438 15.2031 22.5938 14.5 24 14.5C25.3672 14.5 26.6172 15.2031 27.4375 16.2188ZM21.4219 18.4062L20.7188 18.1719C19.8594 17.8984 18.8828 18.0938 18.2188 18.7578C17.5547 19.4219 17.3594 20.3984 17.6328 21.2188L17.8672 21.9609L17.1641 22.3516C16.3828 22.7422 15.875 23.5625 15.875 24.5C15.875 25.4766 16.3828 26.2969 17.1641 26.6875L17.8672 27.0391L17.6328 27.7812C17.3594 28.6406 17.5547 29.5781 18.2188 30.2812C18.8828 30.9453 19.8594 31.1406 20.7188 30.8672L21.4219 30.6328L21.8125 31.3359C22.2031 32.1172 23.0234 32.625 24 32.625C24.9375 32.625 25.7578 32.1172 26.1484 31.3359L26.5391 30.6328L27.2422 30.8672C28.1016 31.1406 29.0781 30.9453 29.7422 30.2812C30.4062 29.5781 30.6016 28.6406 30.3281 27.7812L30.0938 27.0391L30.7969 26.6875C31.5781 26.2969 32.125 25.4766 32.125 24.5C32.125 23.5625 31.5781 22.7422 30.7969 22.3516L30.0938 21.9609L30.3281 21.2188C30.6016 20.3984 30.4062 19.4219 29.7422 18.7578C29.0781 18.0938 28.1016 17.8984 27.2422 18.1719L26.5391 18.4062L26.1484 17.7031C25.7578 16.9219 24.9375 16.375 24 16.375C23.0234 16.375 22.2031 16.9219 21.8125 17.7031L21.4219 18.4062Z" fill="#1B75BB"/>
</svg>
