<svg width="24" height="24" viewBox="0 0 24 24" fill="none" xmlns="http://www.w3.org/2000/svg">
<path d="M12.5 17C12.75 17 13 17.25 13 17.5V18C13 19.125 12.0938 20 11 20H6C4.875 20 4 19.125 4 18L3.96875 10C3.96875 8.90625 4.875 8 5.96875 8H9.5C9.75 8 10 8.25 10 8.5C10 8.78125 9.75 9 9.5 9H6C5.4375 9 5 9.46875 5 10V18C5 18.5625 5.4375 19 6 19H11C11.5312 19 12 18.5625 12 18V17.5C12 17.25 12.2188 17 12.5 17ZM19.6875 6.71875C19.875 6.90625 20 7.15625 20 7.4375V14C20 15.125 19.0938 16 18 16H13C11.875 16 11 15.125 11 14V6C11 4.90625 11.875 4 13 4H16.5625C16.8438 4 17.0938 4.125 17.2812 4.3125L19.6875 6.71875ZM17 5.4375V7H18.5625L17 5.4375ZM19 14V8H17C16.4375 8 16 7.5625 16 7V5H13C12.4375 5 12 5.46875 12 6V14C12 14.5625 12.4375 15 13 15H18C18.5312 15 19 14.5625 19 14Z" fill="black"/>
</svg>
