<svg width="24" height="24" viewBox="0 0 24 24" fill="none" xmlns="http://www.w3.org/2000/svg">
<path d="M20.625 10.1559C21.0938 10.6246 21.0938 11.4059 20.625 11.8746L15.125 17.6246C14.375 18.4371 13 17.9059 13 16.7496V14.0309C8.15625 14.0621 6.125 14.5309 7.3125 18.7496C7.59375 19.6559 6.53125 20.3746 5.78125 19.8121C4.71875 19.0621 3 17.3434 3 14.3746C3 9.03086 7.8125 8.09336 13 8.03086V5.28086C13 4.12461 14.375 3.59336 15.125 4.40586L20.625 10.1559ZM19.9062 11.1871C19.9688 11.1559 20 11.0621 20 10.9996C20 10.9684 19.9688 10.8746 19.9062 10.8434L14.4062 5.09336C14.25 4.93711 14 5.03086 14 5.24961V8.99961C9.0625 8.99961 4 9.37461 4 14.3746C4 16.6871 5.25 18.1871 6.375 18.9996C4.75 13.3121 8.625 12.9996 14 12.9996V16.7496C14 16.9996 14.25 17.0934 14.4062 16.9371L19.9062 11.1871Z" fill="black"/>
</svg>
